<svg xmlns="http://www.w3.org/2000/svg" viewBox="0 0 1440 320"><path fill="#000b76" fill-opacity="1" d="M0,224L26.7,213.3C53.3,203,107,181,160,144C213.3,107,267,53,320,42.7C373.3,32,427,64,480,106.7C533.3,149,587,203,640,234.7C693.3,267,747,277,800,256C853.3,235,907,181,960,186.7C1013.3,192,1067,256,1120,266.7C1173.3,277,1227,235,1280,213.3C1333.3,192,1387,192,1413,192L1440,192L1440,320L1413.3,320C1386.7,320,1333,320,1280,320C1226.7,320,1173,320,1120,320C1066.7,320,1013,320,960,320C906.7,320,853,320,800,320C746.7,320,693,320,640,320C586.7,320,533,320,480,320C426.7,320,373,320,320,320C266.7,320,213,320,160,320C106.7,320,53,320,27,320L0,320Z"></path></svg>